# xmcd
#
# Track frame offsets:
#	150
#	9760
#	21386
#	30841
#	42305
#	53367
#	62743
#	77910
#	87526
#	96729
#	108562
#	119986
#	130963
#	143518
#	154405
#	165946
#	176458
#	186191
#	195312
#	206029
#	215854
#	225651
#	235164
#	246985
#	259877
#	269111
#	280863
#	290297
#	300373
#	312716
#	322478
#	331657
#	341716
#	350450
#
# Disc length: 4772 seconds
#
# Revision: 1
# Processed by: cddbd v1.5.2PL0 Copyright (c) Steve Scherf et al.
# Submitted via: audiograbber 1.83.01
#
DISCID=0512a222
DTITLE=Jim Reeves - Some Of My Best
DYEAR=2000
DGENRE=Country
TTITLE0=I Won't Come In While He's There
TTITLE1=Yonder Comes A Sucker
TTITLE2=Billy Bayou
TTITLE3=Adios Amigo
TTITLE4=How Can I Write On Paper
TTITLE5=I'm Gonna Change Everything
TTITLE6=Blue Side Of Lonesome
TTITLE7=Yours
TTITLE8=Young Hearts
TTITLE9=Missing You
TTITLE10=Teardrops In My Heart
TTITLE11=That's When I See The Blues
TTITLE12=This World Is Not My Home 
TTITLE13=I Guess I'm Crazy
TTITLE14=You Belong To Me
TTITLE15=Two Shadows On Your Window
TTITLE16=When Two Worlds Collide
TTITLE17=You're Free To Go
TTITLE18=You're The Only Good Thing 
TTITLE19=Blue Boy
TTITLE20=Charmaine
TTITLE21=Dear Hearts And Gentle People
TTITLE22=Final Affair
TTITLE23=Four Walls
TTITLE24=I Get The Blues When It Rains
TTITLE25=Mona Lisa
TTITLE26=Ramona
TTITLE27=A Fool Such As I
TTITLE28=Am I Losing You
TTITLE29=After Awhile
TTITLE30=Honey, Won't You Please Come Home
TTITLE31=Partners
TTITLE32=Throw Another Log On The Fire
TTITLE33=Til The End Of The World
EXTD=
EXTT0=
EXTT1=
EXTT2=
EXTT3=
EXTT4=
EXTT5=
EXTT6=
EXTT7=
EXTT8=
EXTT9=
EXTT10=
EXTT11=
EXTT12=
EXTT13=
EXTT14=
EXTT15=
EXTT16=
EXTT17=
EXTT18=
EXTT19=
EXTT20=
EXTT21=
EXTT22=
EXTT23=
EXTT24=
EXTT25=
EXTT26=
EXTT27=
EXTT28=
EXTT29=
EXTT30=
EXTT31=
EXTT32=
EXTT33=
PLAYORDER=
